<?xml version="1.0" encoding="UTF-8"?>
<svg id="Vrstva_1" data-name="Vrstva 1" xmlns="http://www.w3.org/2000/svg" xmlns:xlink="http://www.w3.org/1999/xlink" viewBox="0 0 64 64">
  <defs>
    <style>
      .cls-1 {
        stroke-linecap: round;
        stroke-miterlimit: 10;
      }

      .cls-1, .cls-2, .cls-3, .cls-4 {
        fill: none;
      }

      .cls-1, .cls-4 {
        stroke: #fdb724;
        stroke-width: 2px;
      }

      .cls-3 {
        clip-path: url(#clippath);
      }

      .cls-4 {
        stroke-linejoin: round;
      }
    </style>
    <clipPath id="clippath">
      <rect class="cls-2" width="64" height="64"/>
    </clipPath>
  </defs>
  <g class="cls-3">
    <g>
      <path class="cls-4" d="m18.09,34.89c5.51-.34,11.97-4.57,14.43-9.49,1.22-2.44,1.22-4.59.24-6.1-.16-.24-.45-.69-.57-.87-1.39-2.11-4.34-2.33-5.77-2.22-.43.03-.86.08-1.3.15l-2.34-3.57c.38-.69.57-1.47.57-2.26,0-.79-.2-1.56-.58-2.26-.14-.22-.46-.71-.57-.87-.32-.44-.72-.82-1.19-1.11-.47-.29-.98-.48-1.52-.56-.65-.13-1.32-.17-1.98-.13-2.43.27-4.75,1.1-6.79,2.44-2.04,1.34-3.73,3.15-4.93,5.27-.99,1.99-.99,3.74-.18,4.96.2.3.36.55.56.86.31.45.72.82,1.18,1.11.46.29.98.48,1.52.56.48.1.97.14,1.46.14l2.35,3.57c-.25.38-.47.77-.68,1.18-1.22,2.45-1.22,4.61-.23,6.11.24.36.3.47.55.85.83,1.26,2.69,2.42,5.78,2.23Z"/>
      <path class="cls-1" d="m16.88,28.94c2.36-.27,4.63-1.09,6.61-2.39,1.99-1.31,3.64-3.06,4.82-5.13"/>
      <path class="cls-1" d="m9.57,16.14c1.96-.15,3.87-.77,5.55-1.79,1.68-1.03,3.1-2.43,4.14-4.11"/>
      <path class="cls-1" d="m26.55,31.79l4.5,7.07"/>
      <path class="cls-4" d="m11.49,31.35l-6.72.7c-.32.03-.63.12-.91.27-.28.15-.53.36-.73.6-.13.23-.18.51-.14.78.05.27.18.51.39.69l10.23,9.25-6.75,13.28c-.06.1-.1.22-.12.34-.02.12,0,.24.02.36.03.12.08.23.16.32.07.1.17.18.27.24.28.14.58.23.89.24.31.02.62-.03.91-.14l17.8-6.27,14.33,6.27c.24.1.5.15.76.15.37,0,.74-.09,1.08-.24.27-.1.5-.27.69-.49.18-.22.3-.48.35-.76l.61-13.28,15.6-9.4c.25-.11.46-.3.6-.53.14-.23.21-.5.2-.77-.07-.25-.22-.47-.42-.63-.21-.16-.46-.24-.72-.24l-17.43-1.94-4.59-11.83c-.13-.27-.34-.51-.59-.68-.25-.17-.55-.27-.85-.28-.65,0-1.28.26-1.74.71l-1.65,1.75"/>
    </g>
  </g>
</svg>