<?xml version="1.0" encoding="UTF-8"?>
<svg id="Vrstva_1" data-name="Vrstva 1" xmlns="http://www.w3.org/2000/svg" xmlns:xlink="http://www.w3.org/1999/xlink" viewBox="0 0 64 64">
  <defs>
    <style>
      .cls-1, .cls-2 {
        stroke-miterlimit: 10;
      }

      .cls-1, .cls-2, .cls-3, .cls-4, .cls-5 {
        fill: none;
      }

      .cls-1, .cls-2, .cls-5 {
        stroke: #fdb724;
        stroke-width: 2px;
      }

      .cls-2 {
        stroke-linecap: round;
      }

      .cls-4 {
        clip-path: url(#clippath);
      }

      .cls-5 {
        stroke-linejoin: round;
      }
    </style>
    <clipPath id="clippath">
      <rect class="cls-3" width="64" height="64"/>
    </clipPath>
  </defs>
  <g class="cls-4">
    <g>
      <path class="cls-1" d="m30.77,48.67c.14.2.32.36.53.48.21.11.45.17.69.17s.48-.06.69-.17c.21-.11.4-.28.53-.48l13.45-19.63c1.69-2.64,2.65-5.68,2.76-8.81.11-3.13-.62-6.23-2.13-8.98-1.5-2.75-3.72-5.04-6.42-6.64-2.7-1.6-5.77-2.44-8.91-2.43-3.13,0-6.21.85-8.9,2.45-2.69,1.6-4.9,3.9-6.4,6.65-1.5,2.75-2.22,5.86-2.11,8.99.12,3.13,1.08,6.17,2.78,8.8l13.42,19.59Z"/>
      <path class="cls-5" d="m41.23,16.51l-6.17-1.21-3.05-5.5-3.06,5.5-6.17,1.21,4.29,4.6-.76,6.25,5.7-2.66,5.38,2.76c.12,0,.23-.03.32-.1l-.76-6.25,4.28-4.6Z"/>
      <path class="cls-5" d="m4.65,44.08h11.62v-8.81"/>
      <path class="cls-2" d="m3.49,36.39l12.78,7.69"/>
      <path class="cls-5" d="m59.35,44.08h-11.62v-8.81"/>
      <path class="cls-2" d="m60.51,36.39l-12.78,7.69"/>
      <path class="cls-5" d="m57.19,53.62h-11.62v8.81"/>
      <path class="cls-2" d="m58.24,61.24l-12.67-7.63"/>
      <path class="cls-5" d="m6.75,53.62h11.62v8.81"/>
      <path class="cls-2" d="m5.71,61.24l12.67-7.63"/>
    </g>
  </g>
</svg>