<?xml version="1.0" encoding="UTF-8"?>
<svg id="Vrstva_1" data-name="Vrstva 1" xmlns="http://www.w3.org/2000/svg" xmlns:xlink="http://www.w3.org/1999/xlink" viewBox="0 0 64 64">
  <defs>
    <style>
      .cls-1, .cls-2, .cls-3, .cls-4 {
        fill: none;
      }

      .cls-2 {
        clip-path: url(#clippath);
      }

      .cls-3 {
        stroke-linecap: round;
      }

      .cls-3, .cls-4 {
        stroke: #fdb724;
        stroke-linejoin: round;
        stroke-width: 2px;
      }
    </style>
    <clipPath id="clippath">
      <rect class="cls-1" width="64" height="64"/>
    </clipPath>
  </defs>
  <g class="cls-2">
    <g>
      <path class="cls-4" d="m30.67,37.13l-6.39,3.55c-.4.22-.86.33-1.32.3-.46-.03-.91-.18-1.28-.45-.38-.27-.67-.63-.85-1.06-.18-.43-.23-.89-.15-1.35l1.29-7.94c.07-.42.04-.85-.09-1.25-.13-.41-.35-.77-.64-1.08l-5.53-5.68c-.32-.33-.54-.73-.64-1.17-.1-.44-.08-.9.07-1.33.14-.43.4-.81.75-1.1.35-.29.77-.48,1.22-.55l7.39-1.13c.44-.07.86-.24,1.22-.51.36-.27.64-.62.83-1.02l3.24-6.93c.2-.42.51-.78.9-1.03.39-.25.85-.38,1.32-.38s.92.13,1.32.38c.39.25.71.61.9,1.03l3.24,6.93c.19.4.48.76.83,1.02.36.27.78.44,1.22.51l7.4,1.14c.45.07.87.26,1.21.55.35.29.61.67.75,1.1.14.43.17.89.07,1.33-.1.44-.32.85-.64,1.17l-5.53,5.69c-.3.3-.52.67-.64,1.08-.13.4-.16.83-.09,1.25l1.29,7.94c.08.46.02.92-.16,1.35-.18.43-.47.79-.85,1.06s-.82.42-1.28.45c-.46.03-.92-.08-1.32-.3l-6.39-3.55c-.4-.23-.86-.34-1.32-.34s-.92.12-1.32.34Z"/>
      <path class="cls-4" d="m22,41h20c.8,0,1.56.32,2.12.88.56.56.88,1.33.88,2.12v7h-26v-7c0-.8.32-1.56.88-2.12.56-.56,1.33-.88,2.12-.88h0Z"/>
      <path class="cls-4" d="m45,57h-26c-.8,0-1.56-.32-2.12-.88-.56-.56-.88-1.33-.88-2.12s.32-1.56.88-2.12c.56-.56,1.33-.88,2.12-.88h26c.8,0,1.56.32,2.12.88s.88,1.33.88,2.12-.32,1.56-.88,2.12-1.33.88-2.12.88Z"/>
      <path class="cls-3" d="m29,46h6"/>
    </g>
  </g>
</svg>