<svg width="20" height="20" viewBox="0 0 20 20" fill="none" xmlns="http://www.w3.org/2000/svg">
<path d="M10 0C8.02219 0 6.08879 0.58649 4.4443 1.6853C2.79981 2.78412 1.51809 4.3459 0.761209 6.17317C0.00433284 8.00043 -0.193701 10.0111 0.192152 11.9509C0.578004 13.8907 1.53041 15.6725 2.92894 17.0711C4.32746 18.4696 6.10929 19.422 8.0491 19.8079C9.98891 20.1937 11.9996 19.9957 13.8268 19.2388C15.6541 18.4819 17.2159 17.2002 18.3147 15.5557C19.4135 13.9112 20 11.9778 20 10C19.9924 7.35019 18.9363 4.81109 17.0626 2.93738C15.1889 1.06368 12.6498 0.00765122 10 0V0ZM6.567 10.388L8.267 12.088L13.449 6.9C13.5606 6.78838 13.6931 6.69983 13.839 6.63942C13.9848 6.57901 14.1411 6.54792 14.299 6.54792C14.4569 6.54792 14.6132 6.57901 14.759 6.63942C14.9049 6.69983 15.0374 6.78838 15.149 6.9C15.2606 7.01162 15.3492 7.14414 15.4096 7.28998C15.47 7.43583 15.5011 7.59214 15.5011 7.75C15.5011 7.90786 15.47 8.06417 15.4096 8.21002C15.3492 8.35586 15.2606 8.48838 15.149 8.6L9.10001 14.646C8.9886 14.7596 8.85591 14.8501 8.70952 14.9123C8.56313 14.9746 8.4059 15.0074 8.24682 15.0089C8.08774 15.0104 7.92993 14.9805 7.7824 14.921C7.63487 14.8615 7.50051 14.7735 7.387 14.662L4.838 12.116C4.61413 11.8858 4.48987 11.5767 4.49212 11.2555C4.49436 10.9344 4.62293 10.6271 4.85 10.4C5.07708 10.1729 5.38442 10.0444 5.70554 10.0421C6.02667 10.0399 6.33577 10.1641 6.566 10.388H6.567Z" fill="#FDB724"/>
</svg>
