<?xml version="1.0" encoding="UTF-8"?><svg id="Vrstva_1" xmlns="http://www.w3.org/2000/svg" viewBox="0 0 80 80"><defs><style>.cls-1{fill:#d03184;}</style></defs><path class="cls-1" d="m0,50.72v-10.72h40L0,50.72Z"/><path class="cls-1" d="m80,29.28v10.72h-40l40-10.72Z"/><path class="cls-1" d="m0,29.28v-12.37l40,23.09L0,29.28Z"/><path class="cls-1" d="m80,50.72v12.38l-40-23.1,40,10.72Z"/><path class="cls-1" d="m0,80v-16.9l40-23.1L0,80Z"/><path class="cls-1" d="m40,40L80,0v16.91l-40,23.09Z"/><path class="cls-1" d="m0,0h16.9l23.1,40L0,0Z"/><path class="cls-1" d="m80,80h-16.91l-23.09-40,40,40Z"/><path class="cls-1" d="m29.28,0h10.72v40L29.28,0Z"/><path class="cls-1" d="m50.72,80h-10.72v-40l10.72,40Z"/><path class="cls-1" d="m50.72,0h12.37l-23.09,40L50.72,0Z"/><path class="cls-1" d="m29.28,80h-12.37l23.1-40-10.72,40Z"/></svg>