<?xml version="1.0" encoding="UTF-8"?><svg id="Vrstva_1" xmlns="http://www.w3.org/2000/svg" xmlns:xlink="http://www.w3.org/1999/xlink" viewBox="0 0 178.42 180.04"><defs><style>.cls-1{fill:#fff;}.cls-2{fill:#006fab;}.cls-3{fill:#fac749;}.cls-4{fill:#060009;}.cls-5{fill:#fdba12;}.cls-6{fill:#54c3bd;}.cls-7{fill:#ece9e8;}.cls-8{mask:url(#mask);}.cls-9{fill:#010101;}.cls-10{fill:#f5c913;}</style><mask id="mask" x="0" y="0" width="178.42" height="180.04" maskUnits="userSpaceOnUse"><g id="mask0_706_4741"><path class="cls-1" d="m127.94,48.32H49.52v79.14h78.43V48.32Z"/></g></mask></defs><path class="cls-3" d="m129.06,48.02H49.81v79.72h79.25V48.02Z"/><g class="cls-8"><path class="cls-5" d="m72.34,180.04l-3.15-3.17,106.08-107.05,3.15,3.17-106.08,107.05Z"/><path class="cls-5" d="m66.05,173.7l-3.15-3.17,106.08-107.05,3.15,3.17-106.08,107.05Z"/><path class="cls-5" d="m59.75,167.35l-3.14-3.17,106.08-107.05,3.15,3.17-106.09,107.05Z"/><path class="cls-5" d="m53.46,161l-3.14-3.17,106.08-107.05,3.15,3.17-106.09,107.05Z"/><path class="cls-5" d="m47.18,154.66l-3.14-3.17,106.08-107.05,3.14,3.17-106.08,107.05Z"/><path class="cls-5" d="m40.89,148.31l-3.15-3.17,106.09-107.05,3.14,3.17-106.08,107.05Z"/><path class="cls-5" d="m34.6,141.96l-3.15-3.17L137.53,31.74l3.15,3.17-106.08,107.05Z"/><path class="cls-5" d="m28.31,135.62l-3.15-3.17L131.24,25.39l3.15,3.17L28.31,135.62Z"/><path class="cls-5" d="m22.01,129.27l-3.14-3.18L124.95,19.04l3.15,3.17L22.01,129.27Z"/><path class="cls-5" d="m15.73,122.92l-3.14-3.17L118.66,12.69l3.14,3.17L15.73,122.92Z"/><path class="cls-5" d="m9.44,116.57l-3.15-3.17L112.37,6.35l3.14,3.17L9.44,116.57Z"/><path class="cls-5" d="m3.15,110.22l-3.15-3.17L106.08,0l3.15,3.17L3.15,110.22Z"/></g><path class="cls-5" d="m65.84,82.76l-11.9-17.56,20.56,12.01,1.13-26.02,10.86,20.86,7.03-13.95,3.24,12.61,16.65-12.84-11.36,22.46,16.03-.47-14.44,11.93,13.07,3.6-12.65,6.18,11.99,18.77-20.45-10.22,4.67,13.45-13.13-11.45-.93,14.17-7.08-14.68-7.26,16.94-1.08-13.64-19.12,14.04,14.45-21.32-20.92.03,20.86-11.28-15.73-10.2,15.5-3.44Z"/><path class="cls-4" d="m70.13,86.81l-8.66-12.78,14.96,8.75.83-18.94,7.9,15.19,5.12-10.16,2.36,9.18,12.12-9.35-8.27,16.35,11.67-.34-10.52,8.69,9.51,2.62-9.21,4.5,8.73,13.66-14.89-7.44,3.4,9.79-9.56-8.33-.67,10.32-5.15-10.68-5.29,12.33-.79-9.93-13.91,10.22,10.52-15.52-15.23.02,15.18-8.21-11.45-7.43,11.28-2.5Z"/><path class="cls-9" d="m77.58,98.61c-.62-.82-.41-2.88,1.17-5.63,2.04-3.57,11.77-25.07,11.77-25.07,0,0,.89-.48,1.45-.15.56.33.91.07,1.28,1.58.36,1.5.6,2.88,1.38,2.83.75-.05,8.72-19.18,9.36-20.72.05-.11.1-.21.18-.3.21-.25,1.32-.18,1.82.71.72,1.25.86,3.61,1.61,4.21.75.6,1.17,1.53,1.61.04.44-1.48,3.17-8.39,3.17-8.39,0,0-1.26-.78-.93-1.35.33-.57,1.76-2.48,1.76-2.48l1.58.93,2.68-3.61s.79-1.49,1.43-1.19c.64.3,3.05,1.33,3.05,1.33,0,0,2.91,1.93,2.45,2.62-.73,1.09-2.97,3.57-3.61,4.29-.11.12-.18.19-.18.19l1.41,1.46-1.62,2.13-2.04-.25-7.55,16.88s-1.65,1.33-2.2-.2c-.45-1.25-1.61-4.21-2.06-4.73-.45-.52-1.41,1.5-1.41,1.5l-8.3,19.96s-1.24.98-1.88-.05c-.64-1.03-2.21-6.13-2.81-5.57-1.71,1.61-11.19,17.86-11.19,17.86,0,0-2.31,2.6-3.37,1.19h0Z"/><path class="cls-6" d="m79.62,100.23c-.62-.82-.41-2.88,1.17-5.63,2.04-3.57,11.77-25.07,11.77-25.07,0,0,.89-.48,1.45-.15.56.33.91.07,1.28,1.58.36,1.5.6,2.88,1.38,2.83.75-.05,8.72-19.18,9.36-20.72.05-.11.1-.21.18-.3.21-.25,1.32-.18,1.82.71.72,1.25.86,3.61,1.61,4.21s1.17,1.53,1.61.04c.44-1.49,3.17-8.39,3.17-8.39,0,0-1.26-.78-.93-1.35.33-.57,1.76-2.48,1.76-2.48l1.58.93,2.68-3.61s.79-1.49,1.43-1.19c.64.3,3.05,1.33,3.05,1.33,0,0,2.91,1.93,2.45,2.62-.73,1.09-2.97,3.57-3.61,4.29-.11.12-.18.19-.18.19l1.41,1.46-1.62,2.13-2.04-.25-7.55,16.88s-1.65,1.33-2.2-.2c-.45-1.25-1.61-4.21-2.06-4.73-.45-.52-1.41,1.5-1.41,1.5l-8.3,19.96s-1.24.98-1.88-.05c-.64-1.03-2.21-6.13-2.81-5.57-1.71,1.61-11.19,17.86-11.19,17.86,0,0-2.31,2.6-3.37,1.19h0Z"/><path class="cls-7" d="m111.62,69.88l7.44-16.7-6.8,16.98-.65-.28Z"/><path class="cls-7" d="m97.71,86.57l9.13-21.49-8.48,21.75-.65-.26Z"/><path class="cls-7" d="m81.2,99.35l11.45-18.24-10.85,18.6-.6-.36Z"/><path class="cls-1" d="m121.62,49.09l3.65-4.89-1.14-.57-3.43,5.02.91.44Z"/><path class="cls-2" d="m126.42,45.06l-1.27-1.2-3.65,5.24.97.68"/><path class="cls-2" d="m92.79,69.88s-13.58,28.2-13.16,28.54c.41.34.93-1.1.93-1.1l12.64-26.46s.51-.25,1.15-.15c.06,0,.11.03.16.06-.02-.34-.02-1.11-.78-1.13-.64-.02-.94.24-.94.24h0Z"/><path class="cls-2" d="m106.37,53.49s-9.43,20.65-9.05,20.82c.21.1,9.39-20.08,9.39-20.08,0,0,.37-.2.85-.13.05,0,.08.02.12.04-.02-.26-.05-.84-.62-.84-.48,0-.69.19-.69.19Z"/><path class="cls-2" d="m120.69,52.68l1.17.64c.75-.68,1.65-1.3,1.49-1.73-.16-.43-.72-1.19-1.52-1.77-.8-.58-2.06-1.31-2.06-1.31l-4.21-2.21s4.88,3.38,5.18,3.75c1.08,1.36-.37,1.91-1.54,1.43s1.49,1.19,1.49,1.19Z"/><path class="cls-2" d="m114.66,49.53c-1.86,4.84-3.54,9.35-3.37,9.43.1.04,1.9-4.36,3.81-9.09l-.44-.34Z"/><path class="cls-1" d="m114.66,47.03s-.93.84-.67,1.25c.26.41,3.9,2.67,3.9,2.67,0,0-3.65-2.31-3.23-3.91Z"/><path class="cls-9" d="m90.98,105.73l3.51-9.32-1.77.69,1.45-5.3-1.39.39.02-5.77-2.84,8.66,1.51-.36-1.22,4.86,1.97-.82-1.24,6.97Z"/><path class="cls-10" d="m91.74,106.16l3.09-9.2-1.77.69,1.44-5.3-1.38.38.18-5.73-3.27,9.02,1.79-.76-1.22,4.86,1.97-.81-.83,6.85Z"/><path class="cls-9" d="m67.53,92.82l6.13-7.86.34,1.87,3.76-3.99.4,1.38,4.91-3.03-5.91,6.94-.48-1.48-3.51,3.58-.34-2.11-5.3,4.7Z"/><path class="cls-10" d="m67.25,93.55l6.24-7.44.34,1.87,3.76-3.99.4,1.38,4.79-3.15-5.98,7.5-.29-1.92-3.51,3.58-.34-2.11-5.41,4.28Z"/></svg>