<svg width="80" height="80" viewBox="0 0 80 80" fill="none" xmlns="http://www.w3.org/2000/svg">
<path d="M0 50.719V40H40L0 50.719Z" fill="#D03184"/>
<path d="M80 29.2808V39.9998H40L80 29.2808Z" fill="#D03184"/>
<path d="M0 29.2808V16.9077L40 39.9998L0 29.2808Z" fill="#D03184"/>
<path d="M80 50.719V63.0968L40 40L80 50.719Z" fill="#D03184"/>
<path d="M0 80V63.0968L40 40L0 80Z" fill="#D03184"/>
<path d="M40 40L80 0V16.9079L40 40Z" fill="#D03184"/>
<path d="M0 0H16.904L40 40L0 0Z" fill="#D03184"/>
<path d="M80 80H63.0914L40 40L80 80Z" fill="#D03184"/>
<path d="M29.2793 0H40.0005V40L29.2793 0Z" fill="#D03184"/>
<path d="M50.7165 80H40V40L50.7165 80Z" fill="#D03184"/>
<path d="M50.7165 0H63.0914L40 40L50.7165 0Z" fill="#D03184"/>
<path d="M29.2791 80H16.9043L40.0003 40L29.2791 80Z" fill="#D03184"/>
</svg>
