<svg width="86" height="89" viewBox="0 0 86 89" fill="none" xmlns="http://www.w3.org/2000/svg">
<path d="M83.8499 8.05322H4.60059V87.7686H83.8499V8.05322Z" fill="#FAC749"/>
<mask id="mask0_706_4741" style="mask-type:luminance" maskUnits="userSpaceOnUse" x="4" y="8" width="79" height="80">
<path d="M82.7327 8.35303H4.30469V87.4965H82.7327V8.35303Z" fill="white"/>
</mask>
<g mask="url(#mask0_706_4741)">
<path d="M27.1264 140.076L23.9795 136.902L130.061 29.8525L133.207 33.026L27.1264 140.076Z" fill="#FDBA12"/>
<path d="M20.8373 133.729L17.6904 130.556L123.772 23.5059L126.918 26.6793L20.8373 133.729Z" fill="#FDBA12"/>
<path d="M14.5437 127.382L11.4014 124.209L117.482 17.1587L120.629 20.3322L14.5437 127.382Z" fill="#FDBA12"/>
<path d="M8.25362 121.035L5.11133 117.861L111.192 10.8115L114.339 13.985L8.25362 121.035Z" fill="#FDBA12"/>
<path d="M1.96455 114.688L-1.17773 111.515L104.903 4.46484L108.046 7.63833L1.96455 114.688Z" fill="#FDBA12"/>
<path d="M-4.3238 108.341L-7.4707 105.167L98.615 -1.88232L101.757 1.29116L-4.3238 108.341Z" fill="#FDBA12"/>
<path d="M-10.6138 101.994L-13.7607 98.8203L92.3204 -8.22949L95.4673 -5.056L-10.6138 101.994Z" fill="#FDBA12"/>
<path d="M-16.9029 95.6469L-20.0498 92.4734L86.0313 -14.5811L89.1782 -11.4076L-16.9029 95.6469Z" fill="#FDBA12"/>
<path d="M-23.1966 89.3002L-26.3389 86.1221L79.7422 -20.9277L82.8891 -17.7542L-23.1966 89.3002Z" fill="#FDBA12"/>
<path d="M-29.4856 82.9484L-32.6279 79.7749L73.4532 -27.2749L76.5955 -24.1014L-29.4856 82.9484Z" fill="#FDBA12"/>
<path d="M-35.775 76.6017L-38.9219 73.4282L67.1638 -33.6216L70.3061 -30.4481L-35.775 76.6017Z" fill="#FDBA12"/>
<path d="M-42.064 70.2546L-45.2109 67.0811L60.8702 -39.9688L64.0171 -36.7953L-42.064 70.2546Z" fill="#FDBA12"/>
</g>
<path d="M20.6302 42.7908L8.73473 25.2351L29.2957 37.2464L30.4262 11.2266L41.2881 32.0895L48.3202 18.1409L51.564 30.7518L68.2167 17.9103L56.8565 40.3691L72.8863 39.9033L58.4438 51.8361L71.5113 55.4386L58.8637 61.6195L70.8515 80.3929L50.4058 70.1713L55.0708 83.6217L41.9387 72.1686L41.0113 86.3432L33.933 71.6612L26.6748 88.6034L25.5905 74.9592L6.47376 89.0001L20.9209 67.6805L0 67.7128L20.8563 56.4349L5.13102 46.2318L20.6302 42.7908Z" fill="#FDBA12"/>
<path d="M24.917 46.8453L16.2607 34.0638L31.2247 42.8093L32.0506 23.8652L39.9548 39.0546L45.072 28.8976L47.4345 38.0767L59.5561 28.7316L51.2874 45.0833L62.9567 44.742L52.4409 53.4276L61.9554 56.0475L52.7501 60.5495L61.4756 74.212L46.5901 66.7719L49.9861 76.5599L40.4255 68.2249L39.7518 78.5433L34.6023 67.8605L29.3144 80.19L28.5254 70.259L14.6135 80.476L25.1293 64.9591L9.90234 64.9822L25.0832 56.7763L13.6353 49.3454L24.917 46.8453Z" fill="#060009"/>
<path d="M32.3688 58.6397C31.7505 57.8187 31.9581 55.7614 33.5362 53.0123C35.5756 49.4468 45.3024 27.9381 45.3024 27.9381C45.3024 27.9381 46.193 27.4537 46.7513 27.7859C47.3143 28.1134 47.6649 27.8597 48.0295 29.3634C48.394 30.8671 48.6247 32.2463 49.4045 32.1955C50.152 32.1448 58.1254 13.0116 58.7668 11.471C58.8129 11.3649 58.8683 11.2634 58.9421 11.1758C59.1544 10.9221 60.2572 11.0005 60.7601 11.8861C61.4753 13.1315 61.6184 15.4978 62.3659 16.0975C63.1134 16.6971 63.5379 17.6242 63.9762 16.139C64.4146 14.6583 67.1462 7.744 67.1462 7.744C67.1462 7.744 65.8911 6.96446 66.2187 6.3925C66.5464 5.82515 67.9814 3.9109 67.9814 3.9109L69.5594 4.84266L72.2403 1.23097C72.2403 1.23097 73.0293 -0.263523 73.6707 0.0409107C74.3121 0.345344 76.7207 1.37396 76.7207 1.37396C76.7207 1.37396 79.6323 3.30665 79.1709 3.99393C78.4372 5.08712 76.1993 7.56872 75.5579 8.27906C75.4472 8.4036 75.3826 8.47279 75.3826 8.47279L76.7945 9.93038L75.1703 12.0568L73.1309 11.8077L65.582 28.6853C65.582 28.6853 63.9347 30.0138 63.381 28.4824C62.9288 27.2323 61.7752 24.271 61.323 23.7544C60.8708 23.2378 59.9157 25.2581 59.9157 25.2581L51.6193 45.2216C51.6193 45.2216 50.3781 46.1995 49.7413 45.1708C49.1046 44.1422 47.5311 39.0407 46.9359 39.6034C45.2286 41.2178 35.7418 57.4589 35.7418 57.4589C35.7418 57.4589 33.4346 60.0604 32.3688 58.6489V58.6397Z" fill="#010101"/>
<path d="M34.4088 60.2589C33.7905 59.4378 33.9981 57.3806 35.5762 54.6315C37.6157 51.0659 47.3425 29.5572 47.3425 29.5572C47.3425 29.5572 48.233 29.0729 48.7913 29.405C49.3497 29.7371 49.705 29.4788 50.0695 30.9825C50.434 32.4862 50.6647 33.8654 51.4445 33.8147C52.192 33.7639 60.1654 14.6308 60.8068 13.0901C60.8529 12.984 60.9083 12.8826 60.9821 12.7949C61.1944 12.5412 62.2972 12.6197 62.8001 13.5053C63.5154 14.7507 63.6584 17.117 64.4059 17.7166C65.1534 18.3162 65.5779 19.2434 66.0163 17.7581C66.4546 16.2729 69.1862 9.36314 69.1862 9.36314C69.1862 9.36314 67.9312 8.5836 68.2588 8.01164C68.5864 7.43967 70.0214 5.53004 70.0214 5.53004L71.5995 6.4618L74.2803 2.85011C74.2803 2.85011 75.0694 1.35562 75.7107 1.66005C76.3521 1.96448 78.7608 2.9931 78.7608 2.9931C78.7608 2.9931 81.6723 4.92579 81.2109 5.61307C80.4773 6.70626 78.2393 9.18786 77.598 9.8982C77.4872 10.0227 77.4226 10.0919 77.4226 10.0919L78.8346 11.5495L77.2104 13.6759L75.1709 13.4269L67.622 30.3045C67.622 30.3045 65.9747 31.6329 65.421 30.1015C64.9688 28.8515 63.8153 25.8902 63.3631 25.3736C62.9109 24.857 61.9557 26.8773 61.9557 26.8773L53.6594 46.8407C53.6594 46.8407 52.4181 47.8186 51.7814 46.79C51.1446 45.7614 49.5711 40.6598 48.9759 41.2225C47.2686 42.837 37.7818 59.078 37.7818 59.078C37.7818 59.078 35.4747 61.6795 34.4088 60.2681V60.2589Z" fill="#54C3BD"/>
<path d="M66.4121 29.9123L73.8549 13.21L67.0581 30.189L66.4121 29.9123Z" fill="#ECE9E8"/>
<path d="M52.501 46.6006L61.6325 25.1104L53.1516 46.8635L52.501 46.6006Z" fill="#ECE9E8"/>
<path d="M35.9912 59.3824L47.4437 41.144L36.5911 59.7421L35.9912 59.3824Z" fill="#ECE9E8"/>
<path d="M76.4117 9.12319L80.0661 4.22919L78.931 3.65723L75.498 8.68038L76.4117 9.12319Z" fill="white"/>
<path d="M81.2098 5.09159L79.9409 3.8877L76.291 9.13225L77.26 9.81492" fill="#006FAB"/>
<path d="M47.5768 29.9125C47.5768 29.9125 34.0018 58.1095 34.4125 58.4508C34.8231 58.7921 35.3445 57.353 35.3445 57.353L47.9875 30.895C47.9875 30.895 48.4997 30.6459 49.1365 30.7474C49.1964 30.7566 49.2472 30.7796 49.298 30.8027C49.2795 30.4614 49.2749 29.6957 48.5182 29.6772C47.8768 29.6588 47.5815 29.9125 47.5815 29.9125H47.5768Z" fill="#006FAB"/>
<path d="M61.1616 13.5189C61.1616 13.5189 51.7347 34.165 52.1085 34.3403C52.3207 34.4418 61.4984 14.2569 61.4984 14.2569C61.4984 14.2569 61.8722 14.0586 62.3475 14.1232C62.3936 14.1278 62.4305 14.1462 62.4674 14.1647C62.4444 13.9064 62.4167 13.3252 61.8491 13.3252C61.3692 13.3252 61.1616 13.5189 61.1616 13.5189Z" fill="#006FAB"/>
<path d="M75.4838 12.7072L76.6559 13.3483C77.408 12.6657 78.3031 12.0476 78.1462 11.614C77.9894 11.1804 77.4218 10.4285 76.6236 9.84734C75.8253 9.26615 74.5656 8.54197 74.5656 8.54197L70.3574 6.33252C70.3574 6.33252 75.2393 9.71357 75.5346 10.0872C76.6143 11.4433 75.1654 11.9968 73.9934 11.5171C72.8214 11.0374 75.4838 12.7072 75.4838 12.7072Z" fill="#006FAB"/>
<path d="M69.4533 9.56152C67.5891 14.4048 65.9095 18.9159 66.0849 18.9897C66.1864 19.0312 67.9859 14.6308 69.8916 9.90286L69.4533 9.56152Z" fill="#006FAB"/>
<path d="M69.4483 7.06104C69.4483 7.06104 68.5162 7.90054 68.7792 8.30645C69.0422 8.71236 72.6828 10.9725 72.6828 10.9725C72.6828 10.9725 69.0284 8.66623 69.4483 7.06104Z" fill="white"/>
<path d="M45.7734 65.766L49.2802 56.4439L47.5083 57.1311L48.9572 51.8358L47.5683 52.2233L47.5868 46.4575L44.749 55.1154L46.2625 54.751L45.0397 59.6127L47.0146 58.7963L45.7734 65.766Z" fill="#010101"/>
<path d="M46.5254 66.1907L49.6169 56.9885L47.845 57.6804L49.2893 52.3851L47.905 52.7679L48.085 47.0391L44.8135 56.0567L46.5992 55.3003L45.3764 60.1574L47.3513 59.3455L46.5254 66.1907Z" fill="#F5C913"/>
<path d="M22.3232 52.8465L28.4509 44.9912L28.7878 46.8593L32.5484 42.8648L32.9452 44.2485L37.8547 41.2227L31.9485 48.16L31.4686 46.6794L27.9572 50.2588L27.6204 48.1508L22.3232 52.8465Z" fill="#010101"/>
<path d="M22.0371 53.5796L28.2755 46.1394L28.6124 48.0075L32.373 44.013L32.7698 45.3968L37.564 42.251L31.5793 49.7465L31.2932 47.8276L27.7818 51.407L27.445 49.2991L22.0371 53.5796Z" fill="#F5C913"/>
</svg>
