<?xml version="1.0" encoding="UTF-8"?><svg id="Vrstva_1" xmlns="http://www.w3.org/2000/svg" viewBox="0 0 80 80"><defs><style>.cls-1{fill:#fff;}.cls-2{fill:#e3000b;}.cls-3{fill:#ffed00;}</style></defs><path class="cls-1" d="m.54.54v78.92h78.94V.54H.54Z"/><path class="cls-3" d="m.54.54v78.92h78.94V.54H.54Zm73.69,32.81c-.13,2.45-.91,5.51-1.6,7.56-2.78,8.24-6,13.36-13.45,13.36-2.19,0-6.09-.59-7.51-4.5l-.35-.91-.6.76c-1.13,1.45-2.57,2.62-4.22,3.43-1.65.81-3.45,1.23-5.29,1.24-2.84.01-5.13-.94-6.6-2.76l-.41-.5-.43.48c-1.58,1.75-4.33,2.76-7.55,2.76-1.13.05-2.27-.15-3.32-.56-1.06-.42-2.01-1.05-2.81-1.85l-.38-.43-.41.41c-1.6,1.6-4.11,2.42-7.26,2.34-3.84-.09-6.17-2.23-6.25-5.72-.13-5.39,5.1-16.72,7.26-20.16.57-1.06,1.42-1.94,2.46-2.54,1.04-.6,2.23-.91,3.43-.88,1.75,0,2.94.36,3.64,1.11.65.68.78,1.25.83,2.64l.08,1.79.95-1.52c2.29-3.69,6.07-4.2,9.84-4.2,2.6,0,4.88.95,5.8,2.44l.34.55.5-.41c2.18-1.73,4.91-2.63,7.69-2.55,3.29,0,5.7.81,7.13,2.44.33.36.54.63.84,1.25l.38.76.54-.65c1.04-1.23,2.35-2.2,3.83-2.85,1.48-.65,3.08-.95,4.69-.88,2.81,0,4.93.75,6.34,2.22,1.75,1.85,2,4.45,1.9,6.3h0Z"/><path class="cls-2" d="m.54.54v78.92h78.94V.54H.54Zm75.9,35.83c-.36,2.88-2.3,8.2-3.33,10.32-2.76,5.71-6.46,10.08-13.59,10.08-3.81,0-6.94-1.2-8.77-3.54-2.64,2.33-6.05,3.6-9.57,3.58-2.76,0-5.18-.79-7.04-2.25-2.33,1.53-5.08,2.31-7.86,2.24-2.38.05-4.71-.65-6.66-2-2.3,1.4-4.97,2.07-7.66,1.9-5.1-.13-8.63-3.36-8.73-8.05-.13-6.24,5.13-17.66,7.6-21.6.81-1.44,1.99-2.64,3.43-3.46,1.43-.82,3.06-1.25,4.71-1.22,3.76,0,5.13,1.08,5.8,2.44,2.91-2.45,6.75-2.6,9.49-2.6,3.01,0,4.91.8,6.52,2.09,2.37-1.39,5.09-2.09,7.84-2.03,3.88,0,6.78.9,8.79,2.89,2.44-1.95,5.49-2.96,8.6-2.86,4.36,0,7.23,1.58,8.9,3.92,2.38,3.31,1.95,6.64,1.52,10.16Z"/><path d="m0,0v80h80V0H0Zm78.9,1.1v77.8H1.1V1.1h77.8Z"/><path d="m76.05,24.01v-.55h.38c.26,0,.41.1.41.28,0,.14-.09.28-.38.28h-.41Zm1.33,1.13l-.23-.4c-.2-.35-.25-.4-.43-.46.34-.05.54-.26.54-.56s-.2-.55-.63-.55h-1v1.98h.41v-.81h.08c.18,0,.25.03.33.1.09.09.2.25.28.39l.16.33h.5-.01Zm-.98-2.54c.2,0,.4.04.59.11.19.08.36.19.5.33.14.14.26.31.34.5.08.19.12.39.12.59,0,.2-.04.4-.11.59-.08.19-.19.36-.33.5s-.31.26-.5.34c-.19.08-.39.12-.59.12-.41,0-.8-.16-1.09-.45-.29-.29-.45-.68-.45-1.09s.16-.8.45-1.09c.29-.29.68-.45,1.09-.45h-.01Zm0-.38c-.25,0-.5.05-.73.15-.23.1-.44.24-.62.42s-.32.39-.42.62c-.1.23-.15.48-.15.73s.05.5.15.73c.1.23.24.44.42.62.18.18.39.32.62.42.23.1.48.15.73.15.51,0,1-.2,1.35-.56.36-.36.56-.85.56-1.35s-.2-1-.56-1.35c-.36-.36-.85-.56-1.35-.56Zm-10.43,2.05c-1.69-.06-3.37.26-4.92.94-1.55.68-2.92,1.71-4.01,3-.23-.51-.54-.97-.91-1.38-1.59-1.79-4.13-2.63-7.55-2.63s-6.11,1.04-8.04,2.68c-1-1.63-3.41-2.7-6.29-2.7-3.76,0-7.86.54-10.31,4.46-.05-1.42-.19-2.17-.98-3.01-.96-1.01-2.53-1.29-4.05-1.29-1.3-.03-2.58.29-3.7.94-1.12.65-2.04,1.6-2.66,2.74-2.18,3.47-7.46,14.92-7.34,20.46.08,3.58,2.48,6.16,6.78,6.26,3.36.09,6-.81,7.68-2.5.85.86,1.87,1.54,3,1.99,1.13.45,2.33.65,3.54.61,3.07,0,6.14-.93,7.95-2.93,1.54,1.88,3.94,2.98,7.04,2.97,1.92-.01,3.81-.46,5.53-1.3,1.72-.85,3.23-2.07,4.41-3.58,1.28,3.47,4.51,4.85,8.04,4.85,7.74,0,11.15-5.32,13.98-13.74.63-1.89,1.49-5.06,1.63-7.71.23-4.42-1.64-9.1-8.8-9.1ZM14.49,45.44c4.01-.7,5.01.75,4.88,2.08-.38,4.01-4.06,4.91-7.26,4.83-2.3-.05-4.4-1.11-4.46-3.81-.1-4.71,4.71-15.6,6.96-19.21,1.05-1.72,2.32-2.57,4.35-2.57s2.4,1,2.38,2.18c-.08,3.14-5.17,12.74-6.85,16.48h0Zm13.04-3.71c-.45,1.25-.84,2.52-1.16,3.81,1.29-.37,2.64-.55,3.98-.51,1.92.05,3.16.84,3.16,2.43,0,3.86-4.26,4.98-7.23,5-3.24,0-6.1-1.85-6.1-5.4,0-4.17,2.25-10.48,4.38-14.68,2.59-5.17,5.26-5.85,9.83-5.85,2,0,4.32.85,4.32,2.76,0,2.63-2.23,3.63-4.43,3.76-.95.06-2.4.11-3.27.05,0,0-.74,1.13-1.52,3.12,4.1-.58,5.82.35,5.13,2.72-.94,3.19-3.71,3.41-7.1,2.81Zm20.14-9.96c-1.11,0-1.83.7-2.38,1.45-1.18,1.68-3.76,8.35-4.16,11.1-.26,1.88.54,2.25,1.43,2.25,1.43,0,3.02-1.5,3.57-3.98,0,0-2.72-.06-1.97-2.47.73-2.33,2.1-2.83,4.38-2.93,4.5-.19,4.05,3.13,3.69,4.91-1.18,5.75-5.26,10.36-11.05,10.36-3.96,0-6.42-2.19-6.42-6.22,0-2.88,1.43-7.39,2.57-10.04,2.4-5.64,4.93-9.56,11.36-9.56,3.87,0,6.91,1.38,6.46,5.01-.33,2.64-1.65,4.21-4.07,4.38-.68.06-3.43,0-2.52-2.63.33-.91.45-1.63-.9-1.63Zm24.3,4.76c-.68,3.38-2.2,7.39-3.87,10.37-2.71,4.88-6,5.56-8.88,5.52-2.87-.04-6.11-1.09-6.14-5.52-.01-3.18,1.37-7.68,2.53-10.62,2.03-5.35,4.11-9.69,10.67-9.62,7.64.09,6.29,6.89,5.69,9.86h0Zm-5.46-3.34c-.08,2.04-3.07,10.22-4.13,12.02-.46.78-.98,1.43-1.92,1.43-.81,0-1.19-.59-1.21-1.25-.05-1.84,3.33-11.08,4.5-12.59.5-.8,1.08-.93,1.74-.91.96,0,1.05.7,1.03,1.3Z"/></svg>