<svg width="180" height="188" viewBox="0 0 180 188" fill="none" xmlns="http://www.w3.org/2000/svg">
<g clip-path="url(#clip0_674_11684)">
<path d="M63.2302 15.4763L70.4576 69.9023L23.3045 52.4861L54.4894 84.5767L23.5497 97.3829L59.9804 112.812L20.7872 143.851L64.2455 136.132L42.0709 185.666L76.6291 149.53L83.9027 177.453L92.7589 139.631L112.868 167.513L109.576 137.749L141.082 156.723L126.442 130.511L172.695 144.255L140.875 109.675L164.877 92.2121L136.405 89.5155L162.028 59.4708L128.891 66.2995L144.232 15.5293L114.344 48.2708L102.959 23.2833L93.479 54.8111L63.2302 15.4763Z" fill="#54C5BF"/>
<path d="M64.8887 91.418L42.1896 68.0589L76.5186 80.7345L71.2514 41.1205L93.2694 69.7485L100.169 46.801L108.457 64.9887L130.202 41.1609L119.038 78.1168L143.159 73.1508L124.509 95.0087L145.239 96.9709L127.768 109.681L150.928 134.858L117.262 124.854L127.918 143.933L104.986 130.127L107.374 151.794L92.7454 131.5L86.2971 159.022L81.001 138.694L55.8485 164.998L71.9905 128.944L40.3571 134.562L68.8855 111.97L42.3641 100.74L64.8887 91.418Z" fill="#2E005A"/>
</g>
<defs>
<clipPath id="clip0_674_11684">
<rect width="180" height="188" fill="white"/>
</clipPath>
</defs>
</svg>
